<mxfile host="app.diagrams.net" modified="2022-04-17T07:22:03.548Z" agent="5.0 (X11; Linux x86_64) AppleWebKit/537.36 (KHTML, like Gecko) Chrome/99.0.4844.82 Safari/537.36" etag="KWH4l-qR9h2gb2arv6MJ" version="17.4.5" type="github">
  <diagram id="on1jaZB2G12ZiQlU1ATC" name="第 1 页">
    <mxGraphModel dx="493" dy="291" grid="0" gridSize="10" guides="1" tooltips="1" connect="1" arrows="1" fold="1" page="1" pageScale="1" pageWidth="1169" pageHeight="827" math="0" shadow="0">
      <root>
        <mxCell id="0" />
        <mxCell id="1" parent="0" />
        <mxCell id="yDM_2lHMn7Q9lCKYdCRe-1" value="&lt;font style=&quot;font-size: 11px ; line-height: 1.2&quot;&gt;:发布主界面&lt;/font&gt;" style="shape=umlLifeline;perimeter=lifelinePerimeter;whiteSpace=wrap;html=1;container=1;collapsible=0;recursiveResize=0;outlineConnect=0;rounded=1;shadow=0;comic=0;labelBackgroundColor=none;strokeWidth=1;fontFamily=Verdana;fontSize=12;align=center;" vertex="1" parent="1">
          <mxGeometry x="344" y="207" width="100" height="338" as="geometry" />
        </mxCell>
        <mxCell id="yDM_2lHMn7Q9lCKYdCRe-2" value="" style="html=1;points=[];perimeter=orthogonalPerimeter;rounded=0;shadow=0;comic=0;labelBackgroundColor=none;strokeWidth=1;fontFamily=Verdana;fontSize=12;align=center;" vertex="1" parent="yDM_2lHMn7Q9lCKYdCRe-1">
          <mxGeometry x="45" y="100" width="10" height="203" as="geometry" />
        </mxCell>
        <mxCell id="yDM_2lHMn7Q9lCKYdCRe-3" value=":审核员" style="shape=umlLifeline;perimeter=lifelinePerimeter;whiteSpace=wrap;html=1;container=1;collapsible=0;recursiveResize=0;outlineConnect=0;rounded=1;shadow=0;comic=0;labelBackgroundColor=none;strokeWidth=1;fontFamily=Verdana;fontSize=12;align=center;" vertex="1" parent="1">
          <mxGeometry x="504" y="207" width="100" height="340" as="geometry" />
        </mxCell>
        <mxCell id="yDM_2lHMn7Q9lCKYdCRe-4" value="" style="html=1;points=[];perimeter=orthogonalPerimeter;rounded=0;shadow=0;comic=0;labelBackgroundColor=none;strokeWidth=1;fontFamily=Verdana;fontSize=12;align=center;" vertex="1" parent="yDM_2lHMn7Q9lCKYdCRe-3">
          <mxGeometry x="45" y="161" width="10" height="109" as="geometry" />
        </mxCell>
        <mxCell id="yDM_2lHMn7Q9lCKYdCRe-23" style="edgeStyle=orthogonalEdgeStyle;rounded=0;orthogonalLoop=1;jettySize=auto;html=1;" edge="1" parent="yDM_2lHMn7Q9lCKYdCRe-3" source="yDM_2lHMn7Q9lCKYdCRe-4" target="yDM_2lHMn7Q9lCKYdCRe-4">
          <mxGeometry relative="1" as="geometry">
            <Array as="points">
              <mxPoint x="71" y="246" />
            </Array>
          </mxGeometry>
        </mxCell>
        <mxCell id="yDM_2lHMn7Q9lCKYdCRe-24" value="通过内容&lt;br&gt;进行审核" style="edgeLabel;html=1;align=center;verticalAlign=middle;resizable=0;points=[];" vertex="1" connectable="0" parent="yDM_2lHMn7Q9lCKYdCRe-23">
          <mxGeometry x="0.19" y="-1" relative="1" as="geometry">
            <mxPoint x="19" y="-8" as="offset" />
          </mxGeometry>
        </mxCell>
        <mxCell id="yDM_2lHMn7Q9lCKYdCRe-5" value=":DataBase" style="shape=umlLifeline;perimeter=lifelinePerimeter;whiteSpace=wrap;html=1;container=1;collapsible=0;recursiveResize=0;outlineConnect=0;rounded=1;shadow=0;comic=0;labelBackgroundColor=none;strokeWidth=1;fontFamily=Verdana;fontSize=12;align=center;" vertex="1" parent="1">
          <mxGeometry x="644" y="207" width="100" height="344" as="geometry" />
        </mxCell>
        <mxCell id="yDM_2lHMn7Q9lCKYdCRe-6" value="" style="html=1;points=[];perimeter=orthogonalPerimeter;rounded=0;shadow=0;comic=0;labelBackgroundColor=none;strokeWidth=1;fontFamily=Verdana;fontSize=12;align=center;" vertex="1" parent="yDM_2lHMn7Q9lCKYdCRe-5">
          <mxGeometry x="45" y="110" width="10" height="198" as="geometry" />
        </mxCell>
        <mxCell id="yDM_2lHMn7Q9lCKYdCRe-7" value=":用户" style="shape=umlLifeline;perimeter=lifelinePerimeter;whiteSpace=wrap;html=1;container=1;collapsible=0;recursiveResize=0;outlineConnect=0;rounded=1;shadow=0;comic=0;labelBackgroundColor=none;strokeWidth=1;fontFamily=Verdana;fontSize=12;align=center;" vertex="1" parent="1">
          <mxGeometry x="177" y="207" width="100" height="340" as="geometry" />
        </mxCell>
        <mxCell id="yDM_2lHMn7Q9lCKYdCRe-8" value="" style="html=1;points=[];perimeter=orthogonalPerimeter;rounded=0;shadow=0;comic=0;labelBackgroundColor=none;strokeWidth=1;fontFamily=Verdana;fontSize=12;align=center;" vertex="1" parent="yDM_2lHMn7Q9lCKYdCRe-7">
          <mxGeometry x="45" y="100" width="10" height="68" as="geometry" />
        </mxCell>
        <mxCell id="yDM_2lHMn7Q9lCKYdCRe-9" value="" style="html=1;verticalAlign=bottom;endArrow=block;entryX=0.06;entryY=0.033;labelBackgroundColor=none;fontFamily=Verdana;fontSize=12;edgeStyle=elbowEdgeStyle;elbow=vertical;entryDx=0;entryDy=0;entryPerimeter=0;" edge="1" parent="1" source="yDM_2lHMn7Q9lCKYdCRe-8" target="yDM_2lHMn7Q9lCKYdCRe-2">
          <mxGeometry x="-0.0308" y="-57" relative="1" as="geometry">
            <mxPoint x="324" y="317" as="sourcePoint" />
            <mxPoint as="offset" />
          </mxGeometry>
        </mxCell>
        <mxCell id="yDM_2lHMn7Q9lCKYdCRe-10" value="&lt;span style=&quot;font-family: &amp;#34;verdana&amp;#34; ; font-size: 12px ; background-color: rgb(248 , 249 , 250)&quot;&gt;发布商品&lt;/span&gt;" style="edgeLabel;html=1;align=center;verticalAlign=middle;resizable=0;points=[];" vertex="1" connectable="0" parent="yDM_2lHMn7Q9lCKYdCRe-9">
          <mxGeometry x="-0.1846" y="-2" relative="1" as="geometry">
            <mxPoint x="18" y="-2" as="offset" />
          </mxGeometry>
        </mxCell>
        <mxCell id="yDM_2lHMn7Q9lCKYdCRe-11" value="卖家" style="shape=umlActor;verticalLabelPosition=bottom;verticalAlign=top;html=1;outlineConnect=0;" vertex="1" parent="1">
          <mxGeometry x="191.5" y="119" width="30" height="60" as="geometry" />
        </mxCell>
        <mxCell id="yDM_2lHMn7Q9lCKYdCRe-16" value="买家" style="shape=umlActor;verticalLabelPosition=bottom;verticalAlign=top;html=1;outlineConnect=0;" vertex="1" parent="1">
          <mxGeometry x="232.5" y="119" width="30" height="60" as="geometry" />
        </mxCell>
        <mxCell id="yDM_2lHMn7Q9lCKYdCRe-17" style="edgeStyle=orthogonalEdgeStyle;rounded=0;orthogonalLoop=1;jettySize=auto;html=1;entryX=0.933;entryY=0.014;entryDx=0;entryDy=0;entryPerimeter=0;" edge="1" parent="1" source="yDM_2lHMn7Q9lCKYdCRe-6" target="yDM_2lHMn7Q9lCKYdCRe-4">
          <mxGeometry relative="1" as="geometry">
            <Array as="points">
              <mxPoint x="624" y="370" />
            </Array>
          </mxGeometry>
        </mxCell>
        <mxCell id="yDM_2lHMn7Q9lCKYdCRe-18" value="返回审核数据" style="edgeLabel;html=1;align=center;verticalAlign=middle;resizable=0;points=[];" vertex="1" connectable="0" parent="yDM_2lHMn7Q9lCKYdCRe-17">
          <mxGeometry x="0.2785" y="1" relative="1" as="geometry">
            <mxPoint x="20" y="-1" as="offset" />
          </mxGeometry>
        </mxCell>
        <mxCell id="yDM_2lHMn7Q9lCKYdCRe-19" style="edgeStyle=orthogonalEdgeStyle;rounded=0;orthogonalLoop=1;jettySize=auto;html=1;entryX=1.21;entryY=0.818;entryDx=0;entryDy=0;entryPerimeter=0;" edge="1" parent="1" source="yDM_2lHMn7Q9lCKYdCRe-4" target="yDM_2lHMn7Q9lCKYdCRe-2">
          <mxGeometry relative="1" as="geometry">
            <Array as="points">
              <mxPoint x="518" y="473" />
              <mxPoint x="518" y="473" />
            </Array>
          </mxGeometry>
        </mxCell>
        <mxCell id="yDM_2lHMn7Q9lCKYdCRe-20" value="展示查询结果" style="edgeLabel;html=1;align=center;verticalAlign=middle;resizable=0;points=[];" vertex="1" connectable="0" parent="yDM_2lHMn7Q9lCKYdCRe-19">
          <mxGeometry x="0.194" relative="1" as="geometry">
            <mxPoint x="14" y="-2" as="offset" />
          </mxGeometry>
        </mxCell>
        <mxCell id="yDM_2lHMn7Q9lCKYdCRe-21" style="edgeStyle=orthogonalEdgeStyle;rounded=0;orthogonalLoop=1;jettySize=auto;html=1;" edge="1" parent="1" source="yDM_2lHMn7Q9lCKYdCRe-2">
          <mxGeometry relative="1" as="geometry">
            <mxPoint x="690" y="333" as="targetPoint" />
            <Array as="points">
              <mxPoint x="690" y="334" />
            </Array>
          </mxGeometry>
        </mxCell>
        <mxCell id="yDM_2lHMn7Q9lCKYdCRe-22" value="将商品信息暂存至数据库" style="edgeLabel;html=1;align=center;verticalAlign=middle;resizable=0;points=[];" vertex="1" connectable="0" parent="yDM_2lHMn7Q9lCKYdCRe-21">
          <mxGeometry x="-0.1891" relative="1" as="geometry">
            <mxPoint x="37" y="-2" as="offset" />
          </mxGeometry>
        </mxCell>
      </root>
    </mxGraphModel>
  </diagram>
</mxfile>
